<?xml version="1.0" encoding="UTF-8" standalone="no"?>
<!-- Generator: Adobe Illustrator 18.1.1, SVG Export Plug-In . SVG Version: 6.00 Build 0)  -->

<svg
   xmlns:dc="http://purl.org/dc/elements/1.1/"
   xmlns:cc="http://creativecommons.org/ns#"
   xmlns:rdf="http://www.w3.org/1999/02/22-rdf-syntax-ns#"
   xmlns:svg="http://www.w3.org/2000/svg"
   xmlns="http://www.w3.org/2000/svg"
   xmlns:sodipodi="http://sodipodi.sourceforge.net/DTD/sodipodi-0.dtd"
   xmlns:inkscape="http://www.inkscape.org/namespaces/inkscape"
   version="1.1"
   id="Capa_1"
   x="0px"
   y="0px"
   viewBox="0 0 499.233 499.233"
   style="enable-background:new 0 0 499.233 499.233;"
   xml:space="preserve"
   inkscape:version="0.91 r13725"
   sodipodi:docname="add31.svg"
   inkscape:export-filename="/home/alex/Development/codefest8/app/app/src/main/res/mipmap-xhdpi/add.png"
   inkscape:export-xdpi="15.143229"
   inkscape:export-ydpi="15.143229"><metadata
     id="metadata45"><rdf:RDF><cc:Work
         rdf:about=""><dc:format>image/svg+xml</dc:format><dc:type
           rdf:resource="http://purl.org/dc/dcmitype/StillImage" /></cc:Work></rdf:RDF></metadata><defs
     id="defs43" /><sodipodi:namedview
     pagecolor="#ffffff"
     bordercolor="#666666"
     borderopacity="1"
     objecttolerance="10"
     gridtolerance="10"
     guidetolerance="10"
     inkscape:pageopacity="0"
     inkscape:pageshadow="2"
     inkscape:window-width="1280"
     inkscape:window-height="751"
     id="namedview41"
     showgrid="false"
     inkscape:zoom="0.47272516"
     inkscape:cx="-40.192487"
     inkscape:cy="249.6165"
     inkscape:window-x="0"
     inkscape:window-y="25"
     inkscape:window-maximized="1"
     inkscape:current-layer="Capa_1" /><g
     id="g3"
     style="fill:#ffffff"><g
       id="g5"
       style="fill:#ffffff"><path
         d="M105.117,266.617h127.5v127.5c0,9.35,7.65,17,17,17c9.35,0,17-7.65,17-17v-127.5h127.5c9.35,0,17-7.65,17-17    c0-9.35-7.65-17-17-17h-127.5v-127.5c0-9.35-7.65-17-17-17c-9.35,0-17,7.65-17,17v127.5h-127.5c-9.35,0-17,7.65-17,17    C88.117,258.967,95.767,266.617,105.117,266.617z"
         id="path7"
         style="fill:#ffffff" /><path
         d="M249.617,499.233c137.7,0,249.617-111.917,249.617-249.617S387.317,0,249.617,0S0,111.917,0,249.617    S111.917,499.233,249.617,499.233z M249.617,34c119,0,215.617,96.617,215.617,215.617s-96.617,215.617-215.617,215.617    S34,368.617,34,249.617S130.617,34,249.617,34z"
         id="path9"
         style="fill:#ffffff" /></g></g><g
     id="g11" /><g
     id="g13" /><g
     id="g15" /><g
     id="g17" /><g
     id="g19" /><g
     id="g21" /><g
     id="g23" /><g
     id="g25" /><g
     id="g27" /><g
     id="g29" /><g
     id="g31" /><g
     id="g33" /><g
     id="g35" /><g
     id="g37" /><g
     id="g39" /></svg>