<?xml version="1.0" encoding="UTF-8" standalone="no"?>
<!-- Generator: Adobe Illustrator 16.0.0, SVG Export Plug-In . SVG Version: 6.00 Build 0)  -->

<svg
   xmlns:dc="http://purl.org/dc/elements/1.1/"
   xmlns:cc="http://creativecommons.org/ns#"
   xmlns:rdf="http://www.w3.org/1999/02/22-rdf-syntax-ns#"
   xmlns:svg="http://www.w3.org/2000/svg"
   xmlns="http://www.w3.org/2000/svg"
   xmlns:sodipodi="http://sodipodi.sourceforge.net/DTD/sodipodi-0.dtd"
   xmlns:inkscape="http://www.inkscape.org/namespaces/inkscape"
   version="1.1"
   id="Capa_1"
   x="0px"
   y="0px"
   width="45.923px"
   height="45.923px"
   viewBox="0 0 45.923 45.923"
   style="enable-background:new 0 0 45.923 45.923;"
   xml:space="preserve"
   inkscape:version="0.91 r13725"
   sodipodi:docname="arrow645.svg"><metadata
     id="metadata41"><rdf:RDF><cc:Work
         rdf:about=""><dc:format>image/svg+xml</dc:format><dc:type
           rdf:resource="http://purl.org/dc/dcmitype/StillImage" /></cc:Work></rdf:RDF></metadata><defs
     id="defs39" /><sodipodi:namedview
     pagecolor="#ffffff"
     bordercolor="#666666"
     borderopacity="1"
     objecttolerance="10"
     gridtolerance="10"
     guidetolerance="10"
     inkscape:pageopacity="0"
     inkscape:pageshadow="2"
     inkscape:window-width="1280"
     inkscape:window-height="751"
     id="namedview37"
     showgrid="false"
     inkscape:zoom="5.139037"
     inkscape:cx="-9.8267437"
     inkscape:cy="22.9615"
     inkscape:window-x="0"
     inkscape:window-y="25"
     inkscape:window-maximized="1"
     inkscape:current-layer="Capa_1" /><g
     id="g3"
     transform="matrix(0.60366371,0.59168178,-0.60366371,0.59168178,23.837818,3.3470213)"
     style="fill:#0000ff"><path
       d="M 44.041,17.019 3.785,0.191 C 2.88,-0.187 1.837,0.006 1.128,0.683 0.419,1.36 0.178,2.393 0.515,3.314 l 14.962,40.987 c 0.345,0.945 1.229,1.586 2.235,1.621 1.006,0.034 1.932,-0.547 2.339,-1.467 l 6.841,-15.436 c 0.264,-0.597 0.753,-1.063 1.359,-1.301 l 15.733,-6.125 c 0.938,-0.365 1.56,-1.263 1.572,-2.269 0.013,-1.005 -0.586,-1.917 -1.515,-2.305 z"
       id="path5"
       inkscape:connector-curvature="0"
       style="fill:#0000ff" /></g><g
     id="g7" /><g
     id="g9" /><g
     id="g11" /><g
     id="g13" /><g
     id="g15" /><g
     id="g17" /><g
     id="g19" /><g
     id="g21" /><g
     id="g23" /><g
     id="g25" /><g
     id="g27" /><g
     id="g29" /><g
     id="g31" /><g
     id="g33" /><g
     id="g35" /></svg>