<?xml version="1.0" encoding="iso-8859-1"?>
<!-- Generator: Adobe Illustrator 18.0.0, SVG Export Plug-In . SVG Version: 6.00 Build 0)  -->
<!DOCTYPE svg PUBLIC "-//W3C//DTD SVG 1.1//EN" "http://www.w3.org/Graphics/SVG/1.1/DTD/svg11.dtd">
<svg version="1.1" id="Capa_1" xmlns="http://www.w3.org/2000/svg" xmlns:xlink="http://www.w3.org/1999/xlink" x="0px" y="0px"
	 viewBox="0 0 376 376" style="enable-background:new 0 0 376 376;" xml:space="preserve">
<g>
	<path d="M366,341H20V25c0-5.523-4.476-10-10-10C4.477,15,0,19.477,0,25v326c0,5.522,4.477,10,10,10h356c5.523,0,10-4.478,10-10
		C376,345.477,371.523,341,366,341z"/>
	<path d="M28.758,316.125c0,0.553,0.447,1,1,1h316.484c0.553,0,1-0.447,1-1c0-0.552-0.447-1-1-1h-14.967
		c1.043-0.83,1.725-2.096,1.725-3.531v-54.469h13.242c0.553,0,1-0.447,1-1c0-0.552-0.447-1-1-1H333v-58h13.242c0.553,0,1-0.447,1-1
		c0-0.552-0.447-1-1-1H333v-45.594c0-2.502-2.029-4.531-4.531-4.531h-63.438c-2.502,0-4.531,2.029-4.531,4.531v45.594H137.089
		l53.594-14.927c1.257-0.351,2.433-0.942,3.461-1.744l53.075-41.329h99.023c0.553,0,1-0.447,1-1c0-0.552-0.447-1-1-1h-56.15
		c1.168-0.518,2.113-1.47,2.608-2.686l22.451-55.314h31.092c0.553,0,1-0.447,1-1c0-0.552-0.447-1-1-1h-30.68
		c0-1.095-0.357-2.178-1.052-3.07c-1.098-1.409-2.87-2.131-4.633-1.88l-35.662,4.95H29.758c-0.553,0-1,0.448-1,1
		c0,0.553,0.447,1,1,1h230.05l-9.188,1.275c-1.77,0.245-3.273,1.416-3.945,3.071c-0.672,1.655-0.41,3.543,0.688,4.953l12.236,15.714
		l-42.362,32.986H29.758c-0.553,0-1,0.448-1,1c0,0.553,0.447,1,1,1h184.909l-31.253,24.336L64.371,194.616
		c-0.481,0.134-0.938,0.312-1.381,0.509H29.758c-0.553,0-1,0.448-1,1c0,0.553,0.447,1,1,1H60.04c-2.503,2.469-3.63,6.182-2.62,9.808
		c1.232,4.424,5.251,7.32,9.628,7.32c0.889,0,1.792-0.12,2.688-0.369l60.172-16.759H260.5v58h-36.25v-46.344
		c0-2.502-2.029-4.531-4.531-4.531h-63.438c-2.502,0-4.531,2.029-4.531,4.531v46.344H115.5v-17.594c0-2.502-2.029-4.531-4.531-4.531
		H47.531c-2.502,0-4.531,2.029-4.531,4.531v17.594H29.758c-0.553,0-1,0.448-1,1c0,0.553,0.447,1,1,1H43v54.469
		c0,1.435,0.682,2.701,1.725,3.531H29.758C29.205,315.125,28.758,315.573,28.758,316.125z M271.885,117.918l12.236,15.713
		c0.517,0.662,1.184,1.166,1.926,1.494h-36.26L271.885,117.918z M260.5,257.125v54.469c0,1.435,0.682,2.701,1.725,3.531h-39.699
		c1.043-0.83,1.725-2.096,1.725-3.531v-54.469H260.5z M115.5,311.594v-54.469h36.25v54.469c0,1.435,0.682,2.701,1.725,3.531h-39.699
		C114.818,314.295,115.5,313.029,115.5,311.594z"/>
</g>
<g>
</g>
<g>
</g>
<g>
</g>
<g>
</g>
<g>
</g>
<g>
</g>
<g>
</g>
<g>
</g>
<g>
</g>
<g>
</g>
<g>
</g>
<g>
</g>
<g>
</g>
<g>
</g>
<g>
</g>
</svg>
