<?xml version="1.0" encoding="iso-8859-1"?>
<!-- Generator: Adobe Illustrator 16.0.0, SVG Export Plug-In . SVG Version: 6.00 Build 0)  -->
<!DOCTYPE svg PUBLIC "-//W3C//DTD SVG 1.1//EN" "http://www.w3.org/Graphics/SVG/1.1/DTD/svg11.dtd">
<svg version="1.1" id="Capa_1" xmlns="http://www.w3.org/2000/svg" xmlns:xlink="http://www.w3.org/1999/xlink" x="0px" y="0px"
	 width="112.001px" height="112.001px" viewBox="0 0 112.001 112.001" style="enable-background:new 0 0 112.001 112.001;"
	 xml:space="preserve">
<g>
	<path d="M88.891,47.794L65.334,25.667v6.955c0,0.647,0.242,1.25,0.709,1.703c2.328,2.268,9.748,9.486,12.096,11.75
		C80.645,48.497,79.488,49,77.635,49H50.622l-3.195-9.586c-0.14-0.418-0.592-0.646-1.012-0.506
		c-0.419,0.141-0.646,0.594-0.506,1.012L48.934,49H4.667C4.667,49,0,49.672,0,54.829c0,2.119,0,14.835,0,14.835
		C0,71.688,5.067,77,7,77h3.147c1.922,5.437,7.092,9.334,13.187,9.334c6.094,0,11.263-3.897,13.187-9.334h43.625
		c1.924,5.437,7.092,9.334,13.188,9.334c6.381,0,11.752-4.271,13.438-10.106c2.263-1.543,5.229-5.013,5.229-6.558
		c0,0,0-11.037,0-13.155C112,52.938,104.637,50.895,88.891,47.794z M23.333,79.332c-3.858,0-7-3.142-7-7c0-3.856,3.142-7,7-7
		s7,3.144,7,7C30.333,76.19,27.194,79.332,23.333,79.332z M93.334,79.332c-3.859,0-7-3.142-7-7c0-3.856,3.141-7,7-7s7,3.144,7,7
		C100.334,76.19,97.193,79.332,93.334,79.332z"/>
</g>
<g>
</g>
<g>
</g>
<g>
</g>
<g>
</g>
<g>
</g>
<g>
</g>
<g>
</g>
<g>
</g>
<g>
</g>
<g>
</g>
<g>
</g>
<g>
</g>
<g>
</g>
<g>
</g>
<g>
</g>
</svg>
