<?xml version="1.0" encoding="UTF-8" standalone="no"?>
<!-- Generator: Adobe Illustrator 16.0.0, SVG Export Plug-In . SVG Version: 6.00 Build 0)  -->

<svg
   xmlns:dc="http://purl.org/dc/elements/1.1/"
   xmlns:cc="http://creativecommons.org/ns#"
   xmlns:rdf="http://www.w3.org/1999/02/22-rdf-syntax-ns#"
   xmlns:svg="http://www.w3.org/2000/svg"
   xmlns="http://www.w3.org/2000/svg"
   xmlns:sodipodi="http://sodipodi.sourceforge.net/DTD/sodipodi-0.dtd"
   xmlns:inkscape="http://www.inkscape.org/namespaces/inkscape"
   version="1.1"
   id="Capa_1"
   x="0px"
   y="0px"
   width="112.001px"
   height="112.001px"
   viewBox="0 0 112.001 112.001"
   style="enable-background:new 0 0 112.001 112.001;"
   xml:space="preserve"
   inkscape:version="0.91 r13725"
   sodipodi:docname="logo.svg"><metadata
     id="metadata41"><rdf:RDF><cc:Work
         rdf:about=""><dc:format>image/svg+xml</dc:format><dc:type
           rdf:resource="http://purl.org/dc/dcmitype/StillImage" /><dc:title></dc:title></cc:Work></rdf:RDF></metadata><defs
     id="defs39" /><sodipodi:namedview
     pagecolor="#ffffff"
     bordercolor="#666666"
     borderopacity="1"
     objecttolerance="10"
     gridtolerance="10"
     guidetolerance="10"
     inkscape:pageopacity="0"
     inkscape:pageshadow="2"
     inkscape:window-width="1280"
     inkscape:window-height="751"
     id="namedview37"
     showgrid="false"
     inkscape:zoom="2.1071241"
     inkscape:cx="56.0005"
     inkscape:cy="56.0005"
     inkscape:window-x="0"
     inkscape:window-y="25"
     inkscape:window-maximized="1"
     inkscape:current-layer="Capa_1" /><g
     id="g3"
     transform="matrix(0.67144607,0,0,0.67144607,25.627347,24.568731)"
     inkscape:export-filename="/home/alex/Development/codefest8/app/app/src/main/res/drawable/logo.png"
     inkscape:export-xdpi="85.209999"
     inkscape:export-ydpi="85.209999"><path
       d="m 88.891,47.794 -23.557,-22.127 0,6.955 c 0,0.647 0.242,1.25 0.709,1.703 2.328,2.268 9.748,9.486 12.096,11.75 C 80.645,48.497 79.488,49 77.635,49 l -27.013,0 -3.195,-9.586 c -0.14,-0.418 -0.592,-0.646 -1.012,-0.506 -0.419,0.141 -0.646,0.594 -0.506,1.012 L 48.934,49 4.667,49 C 4.667,49 0,49.672 0,54.829 0,56.948 0,69.664 0,69.664 0,71.688 5.067,77 7,77 l 3.147,0 c 1.922,5.437 7.092,9.334 13.187,9.334 6.094,0 11.263,-3.897 13.187,-9.334 l 43.625,0 c 1.924,5.437 7.092,9.334 13.188,9.334 6.381,0 11.752,-4.271 13.438,-10.106 2.263,-1.543 5.229,-5.013 5.229,-6.558 0,0 0,-11.037 0,-13.155 -0.001,-3.577 -7.364,-5.62 -23.11,-8.721 z M 23.333,79.332 c -3.858,0 -7,-3.142 -7,-7 0,-3.856 3.142,-7 7,-7 3.858,0 7,3.144 7,7 0,3.858 -3.139,7 -7,7 z m 70.001,0 c -3.859,0 -7,-3.142 -7,-7 0,-3.856 3.141,-7 7,-7 3.859,0 7,3.144 7,7 0,3.858 -3.141,7 -7,7 z"
       id="path5"
       inkscape:connector-curvature="0" /></g><g
     id="g7" /><g
     id="g9" /><g
     id="g11" /><g
     id="g13" /><g
     id="g15" /><g
     id="g17" /><g
     id="g19" /><g
     id="g21" /><g
     id="g23" /><g
     id="g25" /><g
     id="g27" /><g
     id="g29" /><g
     id="g31" /><g
     id="g33" /><g
     id="g35" /><text
     xml:space="preserve"
     style="font-style:normal;font-weight:normal;font-size:40px;line-height:125%;font-family:Sans;letter-spacing:0px;word-spacing:0px;fill:#000000;fill-opacity:1;stroke:none;stroke-width:1px;stroke-linecap:butt;stroke-linejoin:miter;stroke-opacity:1"
     x="5.6949658"
     y="50.305534"
     id="text3369"
     sodipodi:linespacing="125%"
     inkscape:export-filename="/home/alex/Development/codefest8/app/app/src/main/res/drawable/logo.png"
     inkscape:export-xdpi="85.209999"
     inkscape:export-ydpi="85.209999"><tspan
       sodipodi:role="line"
       id="tspan3371"
       x="5.6949658"
       y="50.305534">AiX</tspan></text>
</svg>